<svg width="44" height="44" viewBox="0 0 44 44" fill="none" xmlns="http://www.w3.org/2000/svg">
<rect width="44" height="44" fill="#F2EBE9"/>
<path d="M20 28C21.775 27.9996 23.4988 27.4054 24.897 26.312L29.293 30.708L30.707 29.294L26.311 24.898C27.405 23.4997 27.9996 21.7754 28 20C28 15.589 24.411 12 20 12C15.589 12 12 15.589 12 20C12 24.411 15.589 28 20 28ZM20 14C23.309 14 26 16.691 26 20C26 23.309 23.309 26 20 26C16.691 26 14 23.309 14 20C14 16.691 16.691 14 20 14Z" fill="#514949"/>
<path d="M21.4118 18.586C21.7908 18.966 21.9998 19.468 21.9998 20H23.9998C24.0007 19.4744 23.8974 18.9539 23.6959 18.4684C23.4944 17.983 23.1987 17.5424 22.8258 17.172C21.3118 15.66 18.6868 15.66 17.1738 17.172L18.5858 18.588C19.3458 17.83 20.6558 17.832 21.4118 18.586Z" fill="black"/>
</svg>
