<svg width="90" height="19" viewBox="0 0 90 19" fill="none" xmlns="http://www.w3.org/2000/svg">
<path d="M6.99609 18.1992C7.57031 18.1992 8.13281 18.1406 8.69531 18.0234C9.24609 17.9062 9.78516 17.707 10.3125 17.4258C10.8398 17.1445 11.3086 16.8164 11.707 16.418C12.1055 16.0195 12.4219 15.5273 12.668 14.9297C12.9023 14.332 13.0312 13.6758 13.0312 12.9492C13.0312 12.2461 12.9141 11.6367 12.7031 11.0977C12.3516 10.2539 11.6367 9.53906 10.582 8.95312C10.1133 8.70703 9.17578 8.30859 7.75781 7.74609C7.3125 7.58203 6.94922 7.44141 6.69141 7.32422C6.43359 7.20703 6.16406 7.07812 5.90625 6.9375C5.64844 6.79688 5.44922 6.65625 5.32031 6.51562C5.17969 6.375 5.07422 6.22266 5.00391 6.04688C4.92188 5.88281 4.88672 5.68359 4.88672 5.47266C4.88672 4.94531 5.08594 4.52344 5.46094 4.21875C5.83594 3.91406 6.32812 3.76172 6.9375 3.76172C8.03906 3.76172 9.28125 4.32422 10.6523 5.4375L12.5977 2.89453C10.8281 1.44141 8.91797 0.726562 6.85547 0.75C5.84766 0.773438 4.92188 0.996094 4.08984 1.41797C3.24609 1.83984 2.58984 2.42578 2.10938 3.16406C1.61719 3.91406 1.38281 4.73438 1.38281 5.625C1.38281 6.07031 1.42969 6.49219 1.53516 6.89062C1.64062 7.28906 1.78125 7.62891 1.94531 7.93359C2.10938 8.23828 2.33203 8.51953 2.60156 8.78906C2.87109 9.05859 3.14062 9.29297 3.42188 9.48047C3.69141 9.66797 4.01953 9.86719 4.39453 10.0547C4.76953 10.2422 5.10938 10.4062 5.4375 10.5234C5.75391 10.6523 6.11719 10.793 6.53906 10.9336C6.99609 11.0977 7.37109 11.2266 7.65234 11.3438C7.93359 11.4609 8.20312 11.5898 8.46094 11.7305C8.71875 11.8711 8.91797 12.0234 9.05859 12.1641C9.19922 12.3164 9.30469 12.4922 9.38672 12.6797C9.45703 12.8789 9.50391 13.1016 9.50391 13.3477C9.50391 13.7109 9.41016 14.0273 9.23438 14.2852C9.04688 14.5547 8.77734 14.7656 8.40234 14.918C8.02734 15.082 7.58203 15.1523 7.05469 15.1523C6.70312 15.1523 6.35156 15.1172 6 15.0234C5.63672 14.9414 5.27344 14.8125 4.91016 14.6367C4.54688 14.4727 4.18359 14.25 3.82031 13.9688C3.45703 13.6992 3.11719 13.3828 2.8125 13.0195L0.785156 15.5156C1.65234 16.418 2.625 17.0859 3.69141 17.5312C4.75781 17.9766 5.85938 18.1992 6.99609 18.1992ZM19.1836 18.1992C19.8984 18.1992 20.4844 18.1406 20.9414 18.0117C21.3867 17.8945 21.8438 17.707 22.2891 17.4609L21.4805 14.9531C20.9414 15.2344 20.4492 15.3633 20.0039 15.3633C19.6289 15.3633 19.3711 15.2461 19.207 15C19.043 14.7656 18.9727 14.3789 18.9727 13.8633V8.88281H22.1602V6.28125H18.9727V2.10938L15.832 2.44922V6.28125H14.4492V8.88281H15.832V14.2969C15.832 15.5859 16.125 16.5586 16.7227 17.2148C17.3203 17.8711 18.1406 18.1992 19.1836 18.1992ZM32.332 6.28125V7.60547H32.2852C31.4062 6.59766 30.2578 6.08203 28.8281 6.08203C28.0547 6.08203 27.3164 6.23438 26.6367 6.53906C25.957 6.84375 25.3711 7.26562 24.8789 7.79297C24.3867 8.33203 24.0117 8.97656 23.7305 9.72656C23.4492 10.4883 23.3086 11.3086 23.3086 12.1758C23.3086 13.0664 23.4492 13.8984 23.7305 14.6484C24.0117 15.3984 24.3984 16.043 24.8906 16.5586C25.3828 17.0742 25.9805 17.4844 26.6719 17.7656C27.3633 18.0586 28.1133 18.1992 28.9219 18.1992C30.4219 18.1992 31.582 17.6602 32.4258 16.582H32.4844V18H35.4727V6.28125H32.332ZM29.4961 15.3867C28.6055 15.3867 27.8906 15.0938 27.3281 14.4961C26.7656 13.9102 26.4961 13.1367 26.4961 12.1875C26.4961 11.2031 26.7773 10.418 27.3516 9.80859C27.9258 9.21094 28.6406 8.90625 29.5078 8.90625C30.3516 8.90625 31.0547 9.22266 31.6172 9.84375C32.1797 10.4766 32.4609 11.25 32.4609 12.1875C32.4609 13.1367 32.168 13.9102 31.6055 14.4961C31.0312 15.0938 30.3281 15.3867 29.4961 15.3867ZM45.2695 6.08203C44.5664 6.08203 43.9219 6.25781 43.3125 6.58594C42.7031 6.91406 42.1758 7.39453 41.7305 8.00391H41.6953V6.28125H38.5547V18H41.6953V12.5625C41.6953 11.6719 41.9531 10.9336 42.4805 10.3594C43.0078 9.79688 43.7461 9.50391 44.6836 9.50391C44.918 9.50391 45.1992 9.51562 45.5156 9.53906V6.09375C45.4688 6.09375 45.3867 6.08203 45.2695 6.08203ZM51.1992 18.1992C51.9141 18.1992 52.5 18.1406 52.957 18.0117C53.4023 17.8945 53.8594 17.707 54.3047 17.4609L53.4961 14.9531C52.957 15.2344 52.4648 15.3633 52.0195 15.3633C51.6445 15.3633 51.3867 15.2461 51.2227 15C51.0586 14.7656 50.9883 14.3789 50.9883 13.8633V8.88281H54.1758V6.28125H50.9883V2.10938L47.8477 2.44922V6.28125H46.4648V8.88281H47.8477V14.2969C47.8477 15.5859 48.1406 16.5586 48.7383 17.2148C49.3359 17.8711 50.1562 18.1992 51.1992 18.1992ZM67.7812 0.949219V12.4688H67.7344L60.1523 0.949219H56.7891V18H60.1523V6.70312H60.1992L67.6992 18H71.1562V0.949219H67.7812ZM82.9102 18.1641C84.1992 18.1641 85.4414 17.9766 86.6367 17.5898C87.832 17.2148 88.8281 16.6992 89.625 16.0547V8.70703H82.5352V11.6016H86.3672V14.1094C85.3242 14.7656 84.1758 15.082 82.9102 15.082C81.8672 15.082 80.9531 14.8359 80.1562 14.3438C79.3594 13.8516 78.7617 13.1836 78.3516 12.3398C77.9297 11.4961 77.7305 10.5586 77.7305 9.50391C77.7305 8.66016 77.8594 7.875 78.1172 7.17188C78.375 6.46875 78.7383 5.87109 79.1953 5.40234C79.6523 4.93359 80.1914 4.57031 80.8008 4.3125C81.4102 4.05469 82.0664 3.92578 82.7695 3.92578C84.4688 3.92578 85.9336 4.52344 87.1523 5.69531L89.543 3.66797C88.6875 2.71875 87.6562 1.99219 86.4609 1.5C85.2539 1.00781 84.0234 0.75 82.7695 0.75C81.457 0.75 80.2734 0.972656 79.1953 1.41797C78.1172 1.86328 77.2148 2.48438 76.4883 3.25781C75.7617 4.04297 75.2109 4.96875 74.8125 6.03516C74.4141 7.11328 74.2148 8.26172 74.2148 9.50391C74.2148 10.8398 74.4375 12.0586 74.8828 13.1602C75.3281 14.2617 75.9375 15.1641 76.7227 15.8906C77.4961 16.6172 78.4219 17.1797 79.4766 17.5781C80.5312 17.9766 81.6797 18.1641 82.9102 18.1641Z" fill="black"/>
</svg>
