<svg width="16" height="14" viewBox="0 0 16 14" fill="none" xmlns="http://www.w3.org/2000/svg">
<path d="M15.7456 1.89396C15.3901 2.05159 15.0211 2.17596 14.6424 2.26599C15.0596 1.8695 15.3734 1.37357 15.5503 0.820021C15.6009 0.661993 15.4292 0.525342 15.2865 0.609954C14.7597 0.922422 14.1923 1.15683 13.5999 1.30674C13.5656 1.31544 13.5301 1.31985 13.4945 1.31985C13.3866 1.31985 13.2817 1.27979 13.1992 1.20707C12.569 0.651617 11.7584 0.345703 10.9169 0.345703C10.5527 0.345703 10.185 0.402462 9.82404 0.51442C8.70556 0.861333 7.84255 1.78395 7.57178 2.92225C7.4702 3.34921 7.4427 3.77656 7.48998 4.19241C7.4954 4.24019 7.47281 4.27354 7.45889 4.28919C7.43443 4.31661 7.39975 4.33233 7.36374 4.33233C7.35972 4.33233 7.35559 4.33214 7.35149 4.33175C4.90317 4.10428 2.69538 2.92475 1.1348 1.01047C1.05522 0.912825 0.902613 0.924801 0.839184 1.0336C0.533582 1.55789 0.372082 2.15754 0.372082 2.76773C0.372082 3.70287 0.747784 4.58414 1.40038 5.22659C1.12594 5.16152 0.860327 5.05904 0.613591 4.922C0.494222 4.85569 0.34735 4.94092 0.345673 5.07746C0.328587 6.46667 1.14194 7.7028 2.36036 8.25943C2.33583 8.26002 2.31129 8.26029 2.28671 8.26029C2.09358 8.26029 1.89802 8.24164 1.70555 8.20486C1.57112 8.17919 1.45819 8.30671 1.49993 8.43704C1.89541 9.67174 2.9585 10.5818 4.23068 10.7885C3.17485 11.4972 1.9453 11.8711 0.665591 11.8711L0.266639 11.8709C0.14372 11.8709 0.0397592 11.951 0.00843445 12.0701C-0.0224222 12.1873 0.0344149 12.311 0.139234 12.372C1.58126 13.2112 3.22611 13.6547 4.89665 13.6547C6.35893 13.6547 7.72677 13.3645 8.9622 12.7923C10.0948 12.2676 11.0956 11.5177 11.9369 10.5632C12.7206 9.67412 13.3334 8.64773 13.7583 7.51263C14.1634 6.43062 14.3774 5.27609 14.3774 4.17384V4.12133C14.3774 3.94434 14.4575 3.77781 14.5971 3.66445C15.1271 3.23417 15.5885 2.72767 15.9687 2.15903C16.0691 2.00888 15.9108 1.8207 15.7456 1.89396Z" fill="#76A9EA"/>
</svg>
