<svg width="1244" height="342" viewBox="0 0 1244 342" fill="none" xmlns="http://www.w3.org/2000/svg">
<g clip-path="url(#clip0)">
<rect width="1244" height="342" fill="#0B0B10"/>
<path opacity="0.2" d="M9 216.5C57.8333 250.833 176.1 298.9 258.5 216.5C340.9 134.1 447.833 137.167 491 149C542.333 161.333 645 147.8 645 -5" stroke="white"/>
<path opacity="0.2" d="M1346.29 287.608C1305.54 243.987 1199.65 172.68 1102.1 236.422C1004.54 300.165 900.515 275.225 860.694 254.788C812.983 232.185 709.724 224.368 678.376 373.918" stroke="white"/>
<path opacity="0.2" d="M-87 321.314C19.9573 396.539 278.991 501.855 459.468 321.314C639.945 140.773 874.155 147.492 968.701 173.419C1081.13 200.442 1306 170.79 1306 -164" stroke="white"/>
<path d="M445.535 121.965V121.918C446.121 121.695 446.613 121.379 447.012 120.957C447.398 120.535 447.68 120.09 447.844 119.621C448.008 119.152 448.09 118.648 448.09 118.109C448.09 116.762 447.609 115.73 446.66 115.016C445.711 114.312 444.328 113.949 442.523 113.949H436.371V131H443.426C444.34 131 445.148 130.883 445.852 130.648C446.555 130.414 447.141 130.086 447.586 129.664C448.031 129.242 448.371 128.75 448.605 128.176C448.84 127.613 448.957 126.98 448.957 126.289C448.957 125.176 448.652 124.25 448.066 123.5C447.469 122.75 446.625 122.246 445.535 121.965ZM439.688 116.938H441.879C442.512 116.938 443.051 117.031 443.473 117.195C443.895 117.359 444.199 117.594 444.387 117.875C444.574 118.168 444.668 118.52 444.668 118.918C444.668 119.375 444.539 119.762 444.293 120.066C444.047 120.371 443.742 120.594 443.367 120.734C442.992 120.875 442.57 120.934 442.102 120.934H439.688V116.938ZM442.406 128.035H439.688V123.652H442.441C443.414 123.652 444.152 123.852 444.668 124.25C445.184 124.648 445.441 125.188 445.441 125.867C445.441 126.348 445.312 126.746 445.055 127.074C444.797 127.402 444.434 127.637 443.988 127.801C443.543 127.965 443.016 128.035 442.406 128.035ZM458.273 119.082C457.57 119.082 456.926 119.258 456.316 119.586C455.707 119.914 455.18 120.395 454.734 121.004H454.699V119.281H451.559V131H454.699V125.562C454.699 124.672 454.957 123.934 455.484 123.359C456.012 122.797 456.75 122.504 457.688 122.504C457.922 122.504 458.203 122.516 458.52 122.539V119.094C458.473 119.094 458.391 119.082 458.273 119.082ZM471.176 125.035C471.176 123.898 470.93 122.879 470.461 121.977C469.98 121.074 469.301 120.371 468.434 119.855C467.555 119.34 466.547 119.082 465.422 119.082C464.602 119.082 463.828 119.234 463.113 119.527C462.387 119.832 461.777 120.242 461.262 120.77C460.746 121.297 460.348 121.941 460.055 122.691C459.75 123.441 459.609 124.262 459.609 125.129C459.609 126.324 459.867 127.391 460.395 128.316C460.922 129.254 461.648 129.969 462.562 130.461C463.477 130.953 464.496 131.199 465.645 131.199C466.77 131.199 467.754 131 468.621 130.602C469.477 130.203 470.168 129.664 470.707 128.984L468.668 127.086C467.93 127.977 466.992 128.422 465.867 128.41C465.117 128.41 464.473 128.199 463.945 127.801C463.418 127.402 463.066 126.863 462.879 126.16H471.094C471.141 125.973 471.176 125.598 471.176 125.035ZM465.527 121.848C466.184 121.848 466.734 122.035 467.168 122.398C467.59 122.762 467.895 123.266 468.059 123.898H462.891C463.066 123.242 463.383 122.727 463.852 122.375C464.32 122.023 464.871 121.848 465.527 121.848ZM482.039 119.281V120.605H481.992C481.113 119.598 479.965 119.082 478.535 119.082C477.762 119.082 477.023 119.234 476.344 119.539C475.664 119.844 475.078 120.266 474.586 120.793C474.094 121.332 473.719 121.977 473.438 122.727C473.156 123.488 473.016 124.309 473.016 125.176C473.016 126.066 473.156 126.898 473.438 127.648C473.719 128.398 474.105 129.043 474.598 129.559C475.09 130.074 475.688 130.484 476.379 130.766C477.07 131.059 477.82 131.199 478.629 131.199C480.129 131.199 481.289 130.66 482.133 129.582H482.191V131H485.18V119.281H482.039ZM479.203 128.387C478.312 128.387 477.598 128.094 477.035 127.496C476.473 126.91 476.203 126.137 476.203 125.188C476.203 124.203 476.484 123.418 477.059 122.809C477.633 122.211 478.348 121.906 479.215 121.906C480.059 121.906 480.762 122.223 481.324 122.844C481.887 123.477 482.168 124.25 482.168 125.188C482.168 126.137 481.875 126.91 481.312 127.496C480.738 128.094 480.035 128.387 479.203 128.387ZM493.078 126.336L495.867 131H499.371L495.164 123.945L499.301 119.281H495.621L491.438 124.004H491.391V113.328H488.25V131H491.391V128.199L493.043 126.336H493.078ZM509.238 117.629C509.766 117.629 510.223 117.441 510.609 117.066C510.984 116.691 511.184 116.246 511.184 115.707C511.184 115.191 510.984 114.734 510.609 114.359C510.223 113.984 509.766 113.797 509.238 113.797C508.699 113.797 508.23 113.984 507.855 114.359C507.48 114.734 507.293 115.191 507.293 115.707C507.293 116.059 507.375 116.387 507.551 116.68C507.715 116.973 507.949 117.207 508.254 117.371C508.559 117.547 508.887 117.629 509.238 117.629ZM507.668 131H510.809V119.281H507.668V131ZM521.074 119.082C520.348 119.082 519.656 119.234 519 119.527C518.344 119.82 517.781 120.242 517.312 120.793H517.277V119.281H514.137V131H517.277V125.105C517.277 124.086 517.512 123.301 517.992 122.738C518.473 122.188 519.117 121.906 519.938 121.906C520.699 121.906 521.262 122.129 521.637 122.562C522 123.008 522.188 123.758 522.188 124.836V131.012H525.328V124.051C525.328 123.172 525.223 122.41 525.023 121.754C524.812 121.109 524.52 120.594 524.133 120.207C523.746 119.832 523.301 119.551 522.797 119.363C522.293 119.176 521.719 119.082 521.074 119.082ZM531.984 131.199C532.699 131.199 533.285 131.141 533.742 131.012C534.188 130.895 534.645 130.707 535.09 130.461L534.281 127.953C533.742 128.234 533.25 128.363 532.805 128.363C532.43 128.363 532.172 128.246 532.008 128C531.844 127.766 531.773 127.379 531.773 126.863V121.883H534.961V119.281H531.773V115.109L528.633 115.449V119.281H527.25V121.883H528.633V127.297C528.633 128.586 528.926 129.559 529.523 130.215C530.121 130.871 530.941 131.199 531.984 131.199ZM542.297 131.199C543.492 131.199 544.57 130.953 545.52 130.449C546.457 129.945 547.195 129.23 547.734 128.305C548.262 127.391 548.531 126.336 548.531 125.152C548.531 124.262 548.367 123.441 548.062 122.691C547.758 121.941 547.324 121.297 546.785 120.77C546.234 120.242 545.578 119.832 544.805 119.527C544.031 119.234 543.188 119.082 542.297 119.082C541.383 119.082 540.527 119.234 539.754 119.539C538.969 119.844 538.312 120.266 537.773 120.805C537.234 121.344 536.812 121.977 536.508 122.727C536.203 123.477 536.062 124.285 536.062 125.152C536.062 125.855 536.156 126.512 536.344 127.121C536.531 127.742 536.812 128.305 537.188 128.797C537.551 129.289 537.984 129.723 538.488 130.074C538.992 130.438 539.566 130.719 540.223 130.906C540.867 131.105 541.559 131.199 542.297 131.199ZM542.297 128.387C541.406 128.387 540.668 128.082 540.094 127.461C539.52 126.84 539.238 126.066 539.238 125.152C539.238 124.215 539.52 123.441 540.082 122.832C540.645 122.223 541.383 121.906 542.297 121.906C543.164 121.906 543.891 122.211 544.477 122.82C545.051 123.43 545.344 124.203 545.344 125.152C545.344 126.09 545.051 126.863 544.465 127.473C543.879 128.082 543.152 128.387 542.297 128.387ZM561.047 131.199C561.762 131.199 562.348 131.141 562.805 131.012C563.25 130.895 563.707 130.707 564.152 130.461L563.344 127.953C562.805 128.234 562.312 128.363 561.867 128.363C561.492 128.363 561.234 128.246 561.07 128C560.906 127.766 560.836 127.379 560.836 126.863V121.883H564.023V119.281H560.836V115.109L557.695 115.449V119.281H556.312V121.883H557.695V127.297C557.695 128.586 557.988 129.559 558.586 130.215C559.184 130.871 560.004 131.199 561.047 131.199ZM573.352 119.082C572.59 119.082 571.887 119.223 571.23 119.492C570.574 119.773 570.012 120.172 569.543 120.699H569.496V113.328H566.355V131H569.496V125.059C569.496 124.027 569.73 123.254 570.223 122.715C570.703 122.176 571.371 121.906 572.238 121.906C573.012 121.906 573.586 122.129 573.961 122.551C574.336 122.984 574.523 123.723 574.523 124.754V131.012H577.676V123.957C577.676 123.09 577.57 122.328 577.359 121.695C577.148 121.062 576.844 120.547 576.457 120.172C576.059 119.797 575.613 119.527 575.098 119.352C574.582 119.176 574.008 119.082 573.352 119.082ZM591.598 125.035C591.598 123.898 591.352 122.879 590.883 121.977C590.402 121.074 589.723 120.371 588.855 119.855C587.977 119.34 586.969 119.082 585.844 119.082C585.023 119.082 584.25 119.234 583.535 119.527C582.809 119.832 582.199 120.242 581.684 120.77C581.168 121.297 580.77 121.941 580.477 122.691C580.172 123.441 580.031 124.262 580.031 125.129C580.031 126.324 580.289 127.391 580.816 128.316C581.344 129.254 582.07 129.969 582.984 130.461C583.898 130.953 584.918 131.199 586.066 131.199C587.191 131.199 588.176 131 589.043 130.602C589.898 130.203 590.59 129.664 591.129 128.984L589.09 127.086C588.352 127.977 587.414 128.422 586.289 128.41C585.539 128.41 584.895 128.199 584.367 127.801C583.84 127.402 583.488 126.863 583.301 126.16H591.516C591.562 125.973 591.598 125.598 591.598 125.035ZM585.949 121.848C586.605 121.848 587.156 122.035 587.59 122.398C588.012 122.762 588.316 123.266 588.48 123.898H583.312C583.488 123.242 583.805 122.727 584.273 122.375C584.742 122.023 585.293 121.848 585.949 121.848ZM604.078 131.199C604.793 131.199 605.379 131.141 605.836 131.012C606.281 130.895 606.738 130.707 607.184 130.461L606.375 127.953C605.836 128.234 605.344 128.363 604.898 128.363C604.523 128.363 604.266 128.246 604.102 128C603.938 127.766 603.867 127.379 603.867 126.863V121.883H607.055V119.281H603.867V115.109L600.727 115.449V119.281H599.344V121.883H600.727V127.297C600.727 128.586 601.02 129.559 601.617 130.215C602.215 130.871 603.035 131.199 604.078 131.199ZM619.723 125.035C619.723 123.898 619.477 122.879 619.008 121.977C618.527 121.074 617.848 120.371 616.98 119.855C616.102 119.34 615.094 119.082 613.969 119.082C613.148 119.082 612.375 119.234 611.66 119.527C610.934 119.832 610.324 120.242 609.809 120.77C609.293 121.297 608.895 121.941 608.602 122.691C608.297 123.441 608.156 124.262 608.156 125.129C608.156 126.324 608.414 127.391 608.941 128.316C609.469 129.254 610.195 129.969 611.109 130.461C612.023 130.953 613.043 131.199 614.191 131.199C615.316 131.199 616.301 131 617.168 130.602C618.023 130.203 618.715 129.664 619.254 128.984L617.215 127.086C616.477 127.977 615.539 128.422 614.414 128.41C613.664 128.41 613.02 128.199 612.492 127.801C611.965 127.402 611.613 126.863 611.426 126.16H619.641C619.688 125.973 619.723 125.598 619.723 125.035ZM614.074 121.848C614.73 121.848 615.281 122.035 615.715 122.398C616.137 122.762 616.441 123.266 616.605 123.898H611.438C611.613 123.242 611.93 122.727 612.398 122.375C612.867 122.023 613.418 121.848 614.074 121.848ZM627.609 131.199C628.734 131.199 629.742 131.012 630.633 130.613C631.523 130.227 632.25 129.723 632.789 129.09L630.633 127.191C630.328 127.543 629.941 127.824 629.473 128.047C629.004 128.27 628.488 128.375 627.914 128.375C626.977 128.375 626.227 128.082 625.641 127.473C625.055 126.875 624.773 126.09 624.773 125.129C624.773 124.66 624.844 124.227 624.996 123.828C625.137 123.43 625.348 123.09 625.617 122.809C625.887 122.527 626.215 122.316 626.613 122.152C627 121.988 627.422 121.906 627.891 121.906C628.992 121.906 629.895 122.328 630.621 123.16L632.742 121.332C632.156 120.605 631.43 120.055 630.539 119.668C629.648 119.281 628.723 119.082 627.762 119.082C626.566 119.082 625.5 119.34 624.562 119.844C623.625 120.359 622.887 121.074 622.371 121.988C621.844 122.914 621.586 123.969 621.586 125.152C621.586 126.336 621.844 127.391 622.359 128.305C622.875 129.23 623.602 129.945 624.516 130.449C625.43 130.953 626.461 131.199 627.609 131.199ZM641.977 119.082C641.215 119.082 640.512 119.223 639.855 119.492C639.199 119.773 638.637 120.172 638.168 120.699H638.121V113.328H634.98V131H638.121V125.059C638.121 124.027 638.355 123.254 638.848 122.715C639.328 122.176 639.996 121.906 640.863 121.906C641.637 121.906 642.211 122.129 642.586 122.551C642.961 122.984 643.148 123.723 643.148 124.754V131.012H646.301V123.957C646.301 123.09 646.195 122.328 645.984 121.695C645.773 121.062 645.469 120.547 645.082 120.172C644.684 119.797 644.238 119.527 643.723 119.352C643.207 119.176 642.633 119.082 641.977 119.082ZM657.34 117.629C657.867 117.629 658.324 117.441 658.711 117.066C659.086 116.691 659.285 116.246 659.285 115.707C659.285 115.191 659.086 114.734 658.711 114.359C658.324 113.984 657.867 113.797 657.34 113.797C656.801 113.797 656.332 113.984 655.957 114.359C655.582 114.734 655.395 115.191 655.395 115.707C655.395 116.059 655.477 116.387 655.652 116.68C655.816 116.973 656.051 117.207 656.355 117.371C656.66 117.547 656.988 117.629 657.34 117.629ZM655.77 131H658.91V119.281H655.77V131ZM669.176 119.082C668.449 119.082 667.758 119.234 667.102 119.527C666.445 119.82 665.883 120.242 665.414 120.793H665.379V119.281H662.238V131H665.379V125.105C665.379 124.086 665.613 123.301 666.094 122.738C666.574 122.188 667.219 121.906 668.039 121.906C668.801 121.906 669.363 122.129 669.738 122.562C670.102 123.008 670.289 123.758 670.289 124.836V131.012H673.43V124.051C673.43 123.172 673.324 122.41 673.125 121.754C672.914 121.109 672.621 120.594 672.234 120.207C671.848 119.832 671.402 119.551 670.898 119.363C670.395 119.176 669.82 119.082 669.176 119.082ZM684.902 113.328V120.605H684.844C683.953 119.598 682.781 119.082 681.305 119.082C680.531 119.082 679.793 119.234 679.113 119.539C678.434 119.844 677.848 120.266 677.355 120.793C676.863 121.332 676.488 121.977 676.207 122.727C675.926 123.488 675.785 124.309 675.785 125.176C675.785 125.691 675.832 126.184 675.926 126.652C676.02 127.121 676.148 127.555 676.324 127.953C676.5 128.352 676.711 128.727 676.969 129.066C677.215 129.418 677.496 129.711 677.824 129.969C678.141 130.227 678.48 130.449 678.855 130.637C679.23 130.824 679.629 130.965 680.062 131.059C680.484 131.152 680.93 131.199 681.398 131.199C682.934 131.199 684.129 130.66 684.984 129.582H685.055V131H688.043V113.328H684.902ZM681.973 128.387C681.082 128.387 680.367 128.094 679.805 127.496C679.242 126.91 678.973 126.137 678.973 125.188C678.973 124.203 679.254 123.418 679.828 122.809C680.402 122.211 681.117 121.906 681.984 121.906C682.875 121.906 683.602 122.223 684.188 122.844C684.773 123.477 685.066 124.25 685.066 125.188C685.066 125.82 684.926 126.371 684.645 126.863C684.363 127.355 684 127.742 683.531 128C683.062 128.258 682.535 128.387 681.973 128.387ZM698.859 119.281V124.965C698.859 126.055 698.602 126.898 698.109 127.484C697.605 128.082 696.984 128.375 696.258 128.375C695.508 128.375 694.969 128.164 694.641 127.742C694.312 127.32 694.16 126.57 694.16 125.516V119.281H691.02V126.336C691.02 127.215 691.113 127.965 691.324 128.598C691.535 129.23 691.828 129.734 692.227 130.109C692.625 130.484 693.07 130.766 693.586 130.941C694.09 131.117 694.676 131.199 695.332 131.199C696 131.199 696.633 131.07 697.23 130.789C697.828 130.508 698.355 130.109 698.812 129.57H698.859V131H702V119.281H698.859ZM708.867 131.199C710.344 131.199 711.469 130.871 712.242 130.191C713.016 129.523 713.414 128.645 713.414 127.555C713.414 127.273 713.391 127.004 713.344 126.77C713.191 125.996 712.734 125.363 711.984 124.895C711.539 124.613 710.672 124.238 709.383 123.758C708.762 123.523 708.316 123.312 708.035 123.125C707.754 122.938 707.625 122.727 707.625 122.492C707.625 122.211 707.742 122 707.977 121.848C708.211 121.695 708.469 121.613 708.773 121.613C709.219 121.613 709.688 121.719 710.18 121.93C710.672 122.141 711.129 122.445 711.574 122.855L713.098 120.559C712.43 120.043 711.75 119.668 711.07 119.434C710.379 119.199 709.629 119.082 708.809 119.082C708.012 119.082 707.285 119.234 706.652 119.516C706.02 119.809 705.516 120.219 705.141 120.758C704.766 121.297 704.59 121.906 704.59 122.598C704.59 122.973 704.625 123.312 704.719 123.617C704.801 123.934 704.93 124.215 705.094 124.449C705.258 124.695 705.445 124.918 705.656 125.105C705.867 125.305 706.113 125.48 706.406 125.645C706.688 125.809 706.969 125.938 707.25 126.055C707.531 126.172 707.848 126.289 708.199 126.406C708.75 126.594 709.16 126.734 709.441 126.852C709.723 126.969 709.934 127.098 710.098 127.238C710.25 127.379 710.332 127.531 710.332 127.707C710.332 128 710.203 128.234 709.945 128.41C709.688 128.598 709.336 128.68 708.891 128.68C707.695 128.68 706.617 128.223 705.645 127.309L704.121 129.477C705.422 130.625 707.004 131.199 708.867 131.199ZM719.484 131.199C720.199 131.199 720.785 131.141 721.242 131.012C721.688 130.895 722.145 130.707 722.59 130.461L721.781 127.953C721.242 128.234 720.75 128.363 720.305 128.363C719.93 128.363 719.672 128.246 719.508 128C719.344 127.766 719.273 127.379 719.273 126.863V121.883H722.461V119.281H719.273V115.109L716.133 115.449V119.281H714.75V121.883H716.133V127.297C716.133 128.586 716.426 129.559 717.023 130.215C717.621 130.871 718.441 131.199 719.484 131.199ZM731.508 119.082C730.805 119.082 730.16 119.258 729.551 119.586C728.941 119.914 728.414 120.395 727.969 121.004H727.934V119.281H724.793V131H727.934V125.562C727.934 124.672 728.191 123.934 728.719 123.359C729.246 122.797 729.984 122.504 730.922 122.504C731.156 122.504 731.438 122.516 731.754 122.539V119.094C731.707 119.094 731.625 119.082 731.508 119.082ZM741.469 119.281L738.785 126.535H738.75L735.879 119.281H732.598L737.285 130.273L735.199 135.746H738.41L744.727 119.281H741.469ZM753.199 131H756.34V113.328H753.199V131ZM761.379 117.629C761.906 117.629 762.363 117.441 762.75 117.066C763.125 116.691 763.324 116.246 763.324 115.707C763.324 115.191 763.125 114.734 762.75 114.359C762.363 113.984 761.906 113.797 761.379 113.797C760.84 113.797 760.371 113.984 759.996 114.359C759.621 114.734 759.434 115.191 759.434 115.707C759.434 116.059 759.516 116.387 759.691 116.68C759.855 116.973 760.09 117.207 760.395 117.371C760.699 117.547 761.027 117.629 761.379 117.629ZM759.809 131H762.949V119.281H759.809V131ZM771.094 126.336L773.883 131H777.387L773.18 123.945L777.316 119.281H773.637L769.453 124.004H769.406V113.328H766.266V131H769.406V128.199L771.059 126.336H771.094ZM789.48 125.035C789.48 123.898 789.234 122.879 788.766 121.977C788.285 121.074 787.605 120.371 786.738 119.855C785.859 119.34 784.852 119.082 783.727 119.082C782.906 119.082 782.133 119.234 781.418 119.527C780.691 119.832 780.082 120.242 779.566 120.77C779.051 121.297 778.652 121.941 778.359 122.691C778.055 123.441 777.914 124.262 777.914 125.129C777.914 126.324 778.172 127.391 778.699 128.316C779.227 129.254 779.953 129.969 780.867 130.461C781.781 130.953 782.801 131.199 783.949 131.199C785.074 131.199 786.059 131 786.926 130.602C787.781 130.203 788.473 129.664 789.012 128.984L786.973 127.086C786.234 127.977 785.297 128.422 784.172 128.41C783.422 128.41 782.777 128.199 782.25 127.801C781.723 127.402 781.371 126.863 781.184 126.16H789.398C789.445 125.973 789.48 125.598 789.48 125.035ZM783.832 121.848C784.488 121.848 785.039 122.035 785.473 122.398C785.895 122.762 786.199 123.266 786.363 123.898H781.195C781.371 123.242 781.688 122.727 782.156 122.375C782.625 122.023 783.176 121.848 783.832 121.848ZM806.672 119.281V120.605H806.625C805.746 119.598 804.598 119.082 803.168 119.082C802.395 119.082 801.656 119.234 800.977 119.539C800.297 119.844 799.711 120.266 799.219 120.793C798.727 121.332 798.352 121.977 798.07 122.727C797.789 123.488 797.648 124.309 797.648 125.176C797.648 126.066 797.789 126.898 798.07 127.648C798.352 128.398 798.738 129.043 799.23 129.559C799.723 130.074 800.32 130.484 801.012 130.766C801.703 131.059 802.453 131.199 803.262 131.199C804.762 131.199 805.922 130.66 806.766 129.582H806.824V131H809.812V119.281H806.672ZM803.836 128.387C802.945 128.387 802.23 128.094 801.668 127.496C801.105 126.91 800.836 126.137 800.836 125.188C800.836 124.203 801.117 123.418 801.691 122.809C802.266 122.211 802.98 121.906 803.848 121.906C804.691 121.906 805.395 122.223 805.957 122.844C806.52 123.477 806.801 124.25 806.801 125.188C806.801 126.137 806.508 126.91 805.945 127.496C805.371 128.094 804.668 128.387 803.836 128.387ZM825.961 119.082C824.461 119.082 823.277 119.598 822.41 120.629H822.363V119.281H819.223V135.746H822.363V129.688H822.41C823.242 130.695 824.391 131.199 825.867 131.199C826.664 131.199 827.414 131.059 828.105 130.766C828.797 130.484 829.395 130.074 829.887 129.559C830.379 129.043 830.777 128.398 831.059 127.648C831.34 126.898 831.48 126.066 831.48 125.176C831.48 124.473 831.387 123.816 831.211 123.184C831.023 122.551 830.766 121.988 830.438 121.496C830.109 121.004 829.711 120.57 829.266 120.207C828.809 119.844 828.293 119.562 827.73 119.375C827.168 119.188 826.57 119.082 825.961 119.082ZM825.293 128.387C824.719 128.387 824.203 128.258 823.734 128C823.266 127.742 822.902 127.355 822.633 126.863C822.363 126.371 822.234 125.82 822.234 125.188C822.234 124.73 822.305 124.297 822.457 123.887C822.609 123.488 822.82 123.137 823.09 122.844C823.348 122.562 823.676 122.328 824.051 122.164C824.426 122 824.848 121.906 825.293 121.906C826.148 121.906 826.863 122.211 827.438 122.809C828 123.418 828.293 124.203 828.293 125.188C828.293 126.137 828.012 126.91 827.449 127.496C826.887 128.094 826.172 128.387 825.293 128.387ZM840.75 119.082C840.047 119.082 839.402 119.258 838.793 119.586C838.184 119.914 837.656 120.395 837.211 121.004H837.176V119.281H834.035V131H837.176V125.562C837.176 124.672 837.434 123.934 837.961 123.359C838.488 122.797 839.227 122.504 840.164 122.504C840.398 122.504 840.68 122.516 840.996 122.539V119.094C840.949 119.094 840.867 119.082 840.75 119.082ZM848.32 131.199C849.516 131.199 850.594 130.953 851.543 130.449C852.48 129.945 853.219 129.23 853.758 128.305C854.285 127.391 854.555 126.336 854.555 125.152C854.555 124.262 854.391 123.441 854.086 122.691C853.781 121.941 853.348 121.297 852.809 120.77C852.258 120.242 851.602 119.832 850.828 119.527C850.055 119.234 849.211 119.082 848.32 119.082C847.406 119.082 846.551 119.234 845.777 119.539C844.992 119.844 844.336 120.266 843.797 120.805C843.258 121.344 842.836 121.977 842.531 122.727C842.227 123.477 842.086 124.285 842.086 125.152C842.086 125.855 842.18 126.512 842.367 127.121C842.555 127.742 842.836 128.305 843.211 128.797C843.574 129.289 844.008 129.723 844.512 130.074C845.016 130.438 845.59 130.719 846.246 130.906C846.891 131.105 847.582 131.199 848.32 131.199ZM848.32 128.387C847.43 128.387 846.691 128.082 846.117 127.461C845.543 126.84 845.262 126.066 845.262 125.152C845.262 124.215 845.543 123.441 846.105 122.832C846.668 122.223 847.406 121.906 848.32 121.906C849.188 121.906 849.914 122.211 850.5 122.82C851.074 123.43 851.367 124.203 851.367 125.152C851.367 126.09 851.074 126.863 850.488 127.473C849.902 128.082 849.176 128.387 848.32 128.387Z" fill="white"/>
<rect width="148" height="46" transform="translate(571 192)" fill="#E7332B"/>
<path d="M600.445 220H607.734V218.719H601.844V215H606.406V213.719H601.844V209.914H607.398V208.633H600.445V220ZM613.945 212.117C613.359 212.117 612.82 212.242 612.336 212.492C611.844 212.742 611.438 213.094 611.117 213.555H611.094V212.211H609.797V220H611.094V216.109C611.094 215.25 611.312 214.562 611.758 214.062C612.203 213.562 612.797 213.305 613.539 213.305C613.836 213.305 614.094 213.352 614.32 213.43C614.539 213.516 614.742 213.648 614.914 213.836C615.086 214.023 615.211 214.281 615.305 214.594C615.398 214.914 615.445 215.297 615.445 215.742V220.008H616.742V215.383C616.742 214.305 616.492 213.484 615.992 212.938C615.492 212.391 614.812 212.117 613.945 212.117ZM622.938 212.117C622.406 212.117 621.93 212.25 621.492 212.5C621.055 212.75 620.695 213.109 620.406 213.57H620.375V212.211H619.078V220H620.375V216.242C620.375 215.727 620.469 215.258 620.656 214.852C620.844 214.445 621.117 214.125 621.477 213.891C621.836 213.656 622.258 213.539 622.742 213.539C622.898 213.539 623.07 213.547 623.258 213.562V212.133C623.195 212.125 623.086 212.117 622.938 212.117ZM628.078 220.102C628.836 220.102 629.523 219.938 630.133 219.602C630.742 219.273 631.219 218.797 631.562 218.188C631.906 217.578 632.086 216.891 632.086 216.117C632.086 215.344 631.906 214.648 631.562 214.039C631.219 213.43 630.742 212.953 630.133 212.617C629.523 212.289 628.836 212.117 628.078 212.117C627.484 212.117 626.93 212.227 626.43 212.43C625.922 212.633 625.492 212.914 625.148 213.273C624.805 213.633 624.531 214.055 624.336 214.547C624.141 215.039 624.047 215.562 624.047 216.117C624.047 216.68 624.141 217.203 624.336 217.688C624.531 218.172 624.805 218.594 625.148 218.953C625.492 219.312 625.922 219.594 626.43 219.797C626.93 220 627.484 220.102 628.078 220.102ZM628.078 218.906C627.547 218.906 627.078 218.781 626.664 218.531C626.242 218.281 625.922 217.945 625.695 217.523C625.469 217.102 625.359 216.633 625.359 216.117C625.359 215.602 625.469 215.133 625.695 214.703C625.914 214.281 626.234 213.938 626.656 213.688C627.07 213.438 627.547 213.312 628.078 213.312C628.578 213.312 629.031 213.43 629.438 213.664C629.844 213.898 630.172 214.234 630.414 214.664C630.648 215.094 630.773 215.578 630.773 216.117C630.773 216.656 630.648 217.141 630.414 217.562C630.172 217.992 629.844 218.32 629.438 218.555C629.023 218.789 628.57 218.906 628.078 218.906ZM634.195 220H635.484V208.219H634.195V220ZM638.195 220H639.484V208.219H638.195V220ZM649.148 220H650.539V209.914H653.977V208.633H645.75V209.914H649.148V220ZM657.812 220.102C658.57 220.102 659.258 219.938 659.867 219.602C660.477 219.273 660.953 218.797 661.297 218.188C661.641 217.578 661.82 216.891 661.82 216.117C661.82 215.344 661.641 214.648 661.297 214.039C660.953 213.43 660.477 212.953 659.867 212.617C659.258 212.289 658.57 212.117 657.812 212.117C657.219 212.117 656.664 212.227 656.164 212.43C655.656 212.633 655.227 212.914 654.883 213.273C654.539 213.633 654.266 214.055 654.07 214.547C653.875 215.039 653.781 215.562 653.781 216.117C653.781 216.68 653.875 217.203 654.07 217.688C654.266 218.172 654.539 218.594 654.883 218.953C655.227 219.312 655.656 219.594 656.164 219.797C656.664 220 657.219 220.102 657.812 220.102ZM657.812 218.906C657.281 218.906 656.812 218.781 656.398 218.531C655.977 218.281 655.656 217.945 655.43 217.523C655.203 217.102 655.094 216.633 655.094 216.117C655.094 215.602 655.203 215.133 655.43 214.703C655.648 214.281 655.969 213.938 656.391 213.688C656.805 213.438 657.281 213.312 657.812 213.312C658.312 213.312 658.766 213.43 659.172 213.664C659.578 213.898 659.906 214.234 660.148 214.664C660.383 215.094 660.508 215.578 660.508 216.117C660.508 216.656 660.383 217.141 660.148 217.562C659.906 217.992 659.578 218.32 659.172 218.555C658.758 218.789 658.305 218.906 657.812 218.906ZM669.812 208.219V213.367H669.789C669.57 213.102 669.328 212.867 669.047 212.68C668.766 212.492 668.469 212.352 668.148 212.258C667.82 212.164 667.484 212.117 667.141 212.117C666.594 212.117 666.086 212.227 665.617 212.43C665.141 212.633 664.734 212.914 664.406 213.273C664.07 213.633 663.805 214.055 663.617 214.555C663.422 215.055 663.328 215.594 663.328 216.156C663.328 216.742 663.422 217.281 663.625 217.773C663.82 218.273 664.086 218.688 664.43 219.023C664.773 219.367 665.18 219.633 665.648 219.82C666.117 220.008 666.617 220.102 667.148 220.102C667.523 220.102 667.875 220.055 668.211 219.945C668.547 219.836 668.852 219.688 669.125 219.484C669.391 219.289 669.633 219.047 669.844 218.766H669.867V220H671.109V208.219H669.812ZM667.273 218.914C666.492 218.914 665.859 218.656 665.375 218.141C664.891 217.625 664.648 216.961 664.648 216.164C664.648 215.312 664.898 214.625 665.398 214.094C665.898 213.57 666.531 213.305 667.289 213.305C667.648 213.305 667.984 213.383 668.305 213.531C668.617 213.68 668.891 213.883 669.117 214.133C669.344 214.391 669.523 214.695 669.656 215.047C669.789 215.398 669.859 215.773 669.859 216.164C669.859 216.57 669.789 216.945 669.648 217.289C669.508 217.633 669.312 217.93 669.078 218.164C668.844 218.398 668.562 218.586 668.25 218.719C667.938 218.852 667.609 218.914 667.273 218.914ZM679.641 212.211V213.367H679.609C679.281 212.961 678.891 212.656 678.43 212.438C677.969 212.227 677.469 212.117 676.938 212.117C676.211 212.117 675.555 212.297 674.977 212.648C674.391 213 673.938 213.484 673.609 214.094C673.281 214.711 673.125 215.398 673.125 216.156C673.125 216.742 673.219 217.281 673.422 217.773C673.617 218.273 673.883 218.688 674.227 219.023C674.57 219.367 674.977 219.633 675.445 219.82C675.914 220.008 676.414 220.102 676.945 220.102C677.508 220.102 678.023 219.984 678.492 219.75C678.961 219.516 679.352 219.188 679.672 218.766H679.695V220H680.938V212.211H679.641ZM677.07 218.914C676.289 218.914 675.656 218.656 675.172 218.141C674.688 217.625 674.445 216.961 674.445 216.164C674.445 215.312 674.695 214.625 675.195 214.094C675.695 213.57 676.328 213.305 677.086 213.305C677.445 213.305 677.789 213.383 678.117 213.531C678.438 213.68 678.711 213.883 678.945 214.133C679.172 214.391 679.352 214.695 679.484 215.047C679.617 215.398 679.688 215.773 679.688 216.164C679.688 216.57 679.617 216.945 679.477 217.289C679.336 217.633 679.141 217.93 678.906 218.164C678.664 218.398 678.383 218.586 678.07 218.719C677.75 218.852 677.414 218.914 677.07 218.914ZM688.773 212.211L686.422 218.141H686.383L683.852 212.211H682.469L685.758 219.695L684.367 223.164H685.742L690.148 212.211H688.773Z" fill="white"/>
</g>
<defs>
<clipPath id="clip0">
<rect width="1244" height="342" fill="white"/>
</clipPath>
</defs>
</svg>
