<svg width="1440" height="669" viewBox="0 0 1440 669" fill="none" xmlns="http://www.w3.org/2000/svg">
<rect x="92" y="173" width="1238" height="342" fill="#0B0B10"/>
<path opacity="0.2" d="M95 380.5C143.833 414.833 262.1 462.9 344.5 380.5C426.9 298.1 533.833 301.167 577 313C628.333 325.333 731 311.8 731 159" stroke="white"/>
<path opacity="0.2" d="M1432.29 451.608C1391.54 407.987 1285.65 336.68 1188.1 400.422C1090.54 464.165 986.515 439.225 946.694 418.788C898.983 396.185 795.724 388.368 764.376 537.918" stroke="white"/>
<path opacity="0.2" d="M-1 485.314C105.957 560.539 364.991 665.855 545.468 485.314C725.945 304.773 960.155 311.492 1054.7 337.419C1167.13 364.442 1392 334.79 1392 0" stroke="white"/>
</svg>
