<svg width="105" height="29" viewBox="0 0 105 29" fill="none" xmlns="http://www.w3.org/2000/svg">
<path d="M6.99609 24.1992C7.57031 24.1992 8.13281 24.1406 8.69531 24.0234C9.24609 23.9062 9.78516 23.707 10.3125 23.4258C10.8398 23.1445 11.3086 22.8164 11.707 22.418C12.1055 22.0195 12.4219 21.5273 12.668 20.9297C12.9023 20.332 13.0312 19.6758 13.0312 18.9492C13.0312 18.2461 12.9141 17.6367 12.7031 17.0977C12.3516 16.2539 11.6367 15.5391 10.582 14.9531C10.1133 14.707 9.17578 14.3086 7.75781 13.7461C7.3125 13.582 6.94922 13.4414 6.69141 13.3242C6.43359 13.207 6.16406 13.0781 5.90625 12.9375C5.64844 12.7969 5.44922 12.6562 5.32031 12.5156C5.17969 12.375 5.07422 12.2227 5.00391 12.0469C4.92188 11.8828 4.88672 11.6836 4.88672 11.4727C4.88672 10.9453 5.08594 10.5234 5.46094 10.2188C5.83594 9.91406 6.32812 9.76172 6.9375 9.76172C8.03906 9.76172 9.28125 10.3242 10.6523 11.4375L12.5977 8.89453C10.8281 7.44141 8.91797 6.72656 6.85547 6.75C5.84766 6.77344 4.92188 6.99609 4.08984 7.41797C3.24609 7.83984 2.58984 8.42578 2.10938 9.16406C1.61719 9.91406 1.38281 10.7344 1.38281 11.625C1.38281 12.0703 1.42969 12.4922 1.53516 12.8906C1.64062 13.2891 1.78125 13.6289 1.94531 13.9336C2.10938 14.2383 2.33203 14.5195 2.60156 14.7891C2.87109 15.0586 3.14062 15.293 3.42188 15.4805C3.69141 15.668 4.01953 15.8672 4.39453 16.0547C4.76953 16.2422 5.10938 16.4062 5.4375 16.5234C5.75391 16.6523 6.11719 16.793 6.53906 16.9336C6.99609 17.0977 7.37109 17.2266 7.65234 17.3438C7.93359 17.4609 8.20312 17.5898 8.46094 17.7305C8.71875 17.8711 8.91797 18.0234 9.05859 18.1641C9.19922 18.3164 9.30469 18.4922 9.38672 18.6797C9.45703 18.8789 9.50391 19.1016 9.50391 19.3477C9.50391 19.7109 9.41016 20.0273 9.23438 20.2852C9.04688 20.5547 8.77734 20.7656 8.40234 20.918C8.02734 21.082 7.58203 21.1523 7.05469 21.1523C6.70312 21.1523 6.35156 21.1172 6 21.0234C5.63672 20.9414 5.27344 20.8125 4.91016 20.6367C4.54688 20.4727 4.18359 20.25 3.82031 19.9688C3.45703 19.6992 3.11719 19.3828 2.8125 19.0195L0.785156 21.5156C1.65234 22.418 2.625 23.0859 3.69141 23.5312C4.75781 23.9766 5.85938 24.1992 6.99609 24.1992ZM19.1836 24.1992C19.8984 24.1992 20.4844 24.1406 20.9414 24.0117C21.3867 23.8945 21.8438 23.707 22.2891 23.4609L21.4805 20.9531C20.9414 21.2344 20.4492 21.3633 20.0039 21.3633C19.6289 21.3633 19.3711 21.2461 19.207 21C19.043 20.7656 18.9727 20.3789 18.9727 19.8633V14.8828H22.1602V12.2812H18.9727V8.10938L15.832 8.44922V12.2812H14.4492V14.8828H15.832V20.2969C15.832 21.5859 16.125 22.5586 16.7227 23.2148C17.3203 23.8711 18.1406 24.1992 19.1836 24.1992ZM32.332 12.2812V13.6055H32.2852C31.4062 12.5977 30.2578 12.082 28.8281 12.082C28.0547 12.082 27.3164 12.2344 26.6367 12.5391C25.957 12.8438 25.3711 13.2656 24.8789 13.793C24.3867 14.332 24.0117 14.9766 23.7305 15.7266C23.4492 16.4883 23.3086 17.3086 23.3086 18.1758C23.3086 19.0664 23.4492 19.8984 23.7305 20.6484C24.0117 21.3984 24.3984 22.043 24.8906 22.5586C25.3828 23.0742 25.9805 23.4844 26.6719 23.7656C27.3633 24.0586 28.1133 24.1992 28.9219 24.1992C30.4219 24.1992 31.582 23.6602 32.4258 22.582H32.4844V24H35.4727V12.2812H32.332ZM29.4961 21.3867C28.6055 21.3867 27.8906 21.0938 27.3281 20.4961C26.7656 19.9102 26.4961 19.1367 26.4961 18.1875C26.4961 17.2031 26.7773 16.418 27.3516 15.8086C27.9258 15.2109 28.6406 14.9062 29.5078 14.9062C30.3516 14.9062 31.0547 15.2227 31.6172 15.8438C32.1797 16.4766 32.4609 17.25 32.4609 18.1875C32.4609 19.1367 32.168 19.9102 31.6055 20.4961C31.0312 21.0938 30.3281 21.3867 29.4961 21.3867ZM45.2695 12.082C44.5664 12.082 43.9219 12.2578 43.3125 12.5859C42.7031 12.9141 42.1758 13.3945 41.7305 14.0039H41.6953V12.2812H38.5547V24H41.6953V18.5625C41.6953 17.6719 41.9531 16.9336 42.4805 16.3594C43.0078 15.7969 43.7461 15.5039 44.6836 15.5039C44.918 15.5039 45.1992 15.5156 45.5156 15.5391V12.0938C45.4688 12.0938 45.3867 12.082 45.2695 12.082ZM51.1992 24.1992C51.9141 24.1992 52.5 24.1406 52.957 24.0117C53.4023 23.8945 53.8594 23.707 54.3047 23.4609L53.4961 20.9531C52.957 21.2344 52.4648 21.3633 52.0195 21.3633C51.6445 21.3633 51.3867 21.2461 51.2227 21C51.0586 20.7656 50.9883 20.3789 50.9883 19.8633V14.8828H54.1758V12.2812H50.9883V8.10938L47.8477 8.44922V12.2812H46.4648V14.8828H47.8477V20.2969C47.8477 21.5859 48.1406 22.5586 48.7383 23.2148C49.3359 23.8711 50.1562 24.1992 51.1992 24.1992ZM67.7812 6.94922V18.4688H67.7344L60.1523 6.94922H56.7891V24H60.1523V12.7031H60.1992L67.6992 24H71.1562V6.94922H67.7812ZM82.9102 24.1641C84.1992 24.1641 85.4414 23.9766 86.6367 23.5898C87.832 23.2148 88.8281 22.6992 89.625 22.0547V14.707H82.5352V17.6016H86.3672V20.1094C85.3242 20.7656 84.1758 21.082 82.9102 21.082C81.8672 21.082 80.9531 20.8359 80.1562 20.3438C79.3594 19.8516 78.7617 19.1836 78.3516 18.3398C77.9297 17.4961 77.7305 16.5586 77.7305 15.5039C77.7305 14.6602 77.8594 13.875 78.1172 13.1719C78.375 12.4688 78.7383 11.8711 79.1953 11.4023C79.6523 10.9336 80.1914 10.5703 80.8008 10.3125C81.4102 10.0547 82.0664 9.92578 82.7695 9.92578C84.4688 9.92578 85.9336 10.5234 87.1523 11.6953L89.543 9.66797C88.6875 8.71875 87.6562 7.99219 86.4609 7.5C85.2539 7.00781 84.0234 6.75 82.7695 6.75C81.457 6.75 80.2734 6.97266 79.1953 7.41797C78.1172 7.86328 77.2148 8.48438 76.4883 9.25781C75.7617 10.043 75.2109 10.9688 74.8125 12.0352C74.4141 13.1133 74.2148 14.2617 74.2148 15.5039C74.2148 16.8398 74.4375 18.0586 74.8828 19.1602C75.3281 20.2617 75.9375 21.1641 76.7227 21.8906C77.4961 22.6172 78.4219 23.1797 79.4766 23.5781C80.5312 23.9766 81.6797 24.1641 82.9102 24.1641Z" fill="black"/>
<path d="M98.9512 24.3652C99.918 24.3652 100.756 24.0215 101.443 23.334C102.131 22.6465 102.496 21.8301 102.496 20.8633C102.496 19.918 102.131 19.0801 101.443 18.3926C100.756 17.7051 99.918 17.3398 98.9512 17.3398C97.9414 17.3398 97.082 17.6836 96.3945 18.3711C95.707 19.0586 95.3633 19.8965 95.3633 20.8633C95.3633 21.8516 95.707 22.668 96.3945 23.3555C97.082 24.043 97.9414 24.3652 98.9512 24.3652Z" fill="#E7332B"/>
</svg>
